# xmcd
#
# Track frame offsets:
#	182
#	21687
#	35840
#	67780
#	83950
#	94292
#	139897
#	150937
#	163687
#	177190
#
# Disc length: 2488 seconds
#
# Revision: 0
# Processed by: cddbd v1.5.1PL0 Copyright (c) Steve Scherf et al.
# Submitted via: dBpowerAMP V4.0
#
DISCID=8109b60a
DTITLE=Los Aguilares - Anhelos - Anhelos
DYEAR=1900
DGENRE=Tejano
TTITLE0=Anhelos
TTITLE1=Mi Compadre
TTITLE2=Popurri De Canciones
TTITLE3=Amor Y Olvido
TTITLE4=Dios Me Nego
TTITLE5=Popurri De Boleros
TTITLE6=Que La Tristeza Me Cubra
TTITLE7=Todas Las Deudas Se Pagan
TTITLE8=Un Mar De Vino
TTITLE9=Candice Rose
EXTD=Genre - Tejano\nArtist - Los Aguilares\nAlbum - Anhelos
EXTT0=
EXTT1=
EXTT2=
EXTT3=
EXTT4=
EXTT5=
EXTT6=
EXTT7=
EXTT8=
EXTT9=
PLAYORDER=
